# xmcd
#
# Track frame offsets:
#	225
#	14850
#	24971
#	44180
#	80373
#	94979
#	115554
#	134843
#	153020
#	197533
#	216491
#
# Disc length: 3526 seconds
# Revision: 2
# Processed by: cddbd v1.5.2PL0 Copyright (c) Steve Scherf et al.
# Submitted via: dBpowerAMP V12.0
#
DISCID=990dc30b
DTITLE=Delta Moon - Live
DYEAR=2003
DGENRE=Blues
TTITLE0=Look Way Down That Lonesome Road
TTITLE1=Raeline
TTITLE2=Put Your Arms Around Me
TTITLE3=Baby, Please Don't Go
TTITLE4=Any-Kind-a-Man
TTITLE5=Tilt-a-Whirl
TTITLE6=Like My Baby Can
TTITLE7=Somebody's Been Using That Thing
TTITLE8=Do the Do
TTITLE9=Edna Mae
TTITLE10=Mean Town Blues
EXTD=
EXTT0=
EXTT1=
EXTT2=
EXTT3=
EXTT4=
EXTT5=
EXTT6=
EXTT7=
EXTT8=
EXTT9=
EXTT10=
PLAYORDER=
